<svg width="354" height="87" viewBox="0 0 354 87" fill="none" xmlns="http://www.w3.org/2000/svg">
<path d="M105.456 38.733V49.0565H103.152V34.4546H105.041L113.297 45.0023V34.4744H115.6V49.0565H113.609L105.456 38.733Z" fill="white"/>
<path d="M128.882 47.0228V49.0565H118.883V34.4546H128.695V36.4916H121.203V40.6678H127.711V42.5631H121.203V47.0261L128.882 47.0228Z" fill="white"/>
<path d="M136.437 34.5168H138.593L140.399 39.494L142.205 34.5168H144.38L141.876 40.9971L144.055 46.3863L148.612 34.4575H151.116L145.16 49.0594H143.143L140.412 42.5199L137.661 49.0594H135.651L129.695 34.4575H132.199L136.756 46.3863L138.941 40.9971L136.437 34.5168Z" fill="white"/>
<path d="M169.164 34.4546V49.0565H166.86V42.6191H159.513V49.0565H157.193V34.4546H159.513V40.5623H166.864V34.4546H169.164Z" fill="white"/>
<path d="M182.443 47.0228V49.0565H172.447V34.4546H182.259V36.4916H174.767V40.6678H181.275V42.5631H174.767V47.0261L182.443 47.0228Z" fill="white"/>
<path d="M184.826 49.0563V34.4543H191.183C191.809 34.4476 192.428 34.5887 192.99 34.8664C193.531 35.1343 194.016 35.5048 194.418 35.9574C194.82 36.4074 195.14 36.9252 195.362 37.4868C195.58 38.034 195.692 38.6181 195.691 39.2074C195.695 39.8438 195.577 40.475 195.342 41.0664C195.122 41.6338 194.785 42.1491 194.355 42.5793C193.93 42.9994 193.415 43.3163 192.848 43.5056L196.277 49.0563H193.687L190.525 43.9637H187.146V49.0431L184.826 49.0563ZM187.146 41.9399H191.15C191.559 41.9457 191.957 41.812 192.279 41.5608C192.615 41.2992 192.882 40.9599 193.059 40.572C193.255 40.1478 193.354 39.6849 193.348 39.2173C193.353 38.7576 193.247 38.3036 193.039 37.8935C192.832 37.4834 192.53 37.1291 192.157 36.8605C191.828 36.6249 191.433 36.4992 191.029 36.5012H187.146V41.9399Z" fill="white"/>
<path d="M198.398 49.0565V34.4546H200.725V49.0565H198.398Z" fill="white"/>
<path d="M214.676 36.4916H209.833V49.0565H207.529V36.4916H202.646V34.4546H214.676V36.4916Z" fill="white"/>
<path d="M219.459 34.4546H221.637L227.304 49.0565H224.882L223.457 45.1011H217.626L216.195 49.0565H213.773L219.459 34.4546ZM222.845 43.3805L220.542 36.986L218.239 43.3805H222.845Z" fill="white"/>
<path d="M234.51 49.1585C233.58 49.1646 232.66 48.9619 231.818 48.5652C230.988 48.1671 230.245 47.6068 229.633 46.9171C229.006 46.2187 228.512 45.411 228.176 44.534C227.825 43.6247 227.648 42.6576 227.653 41.6828C227.637 39.7783 228.343 37.9387 229.627 36.5343C230.245 35.8573 230.992 35.3115 231.825 34.929C232.684 34.5331 233.62 34.3327 234.566 34.3423C235.797 34.2998 237.017 34.6023 238.086 35.2158C239.006 35.7651 239.75 36.5654 240.232 37.5231L238.465 38.7987C238.109 38.0498 237.535 37.426 236.82 37.0089C236.117 36.6114 235.323 36.4057 234.516 36.4123C233.864 36.4023 233.22 36.5504 232.637 36.8441C232.089 37.1352 231.607 37.5396 231.226 38.0307C230.822 38.5407 230.512 39.1189 230.311 39.7381C230.093 40.3836 229.982 41.0606 229.982 41.7422C229.976 42.4495 230.094 43.1524 230.331 43.8187C230.551 44.4415 230.886 45.0173 231.318 45.5162C231.732 45.9967 232.242 46.3851 232.815 46.6567C233.392 46.9329 234.025 47.0738 234.664 47.0687C235.472 47.0723 236.266 46.8631 236.968 46.4622C237.755 45.9956 238.441 45.3772 238.988 44.6428V46.9863C237.711 48.4366 236.219 49.1607 234.51 49.1585ZM238.738 43.3803H235.701V41.6565H240.689V49.0596H238.738V43.3803Z" fill="white"/>
<path d="M253.315 47.0228V49.0565H243.318V34.4546H253.13V36.4916H245.638V40.6678H252.146V42.5631H245.638V47.0261L253.315 47.0228Z" fill="white"/>
<path d="M260.768 49.0562V34.4543H266.888C267.514 34.4483 268.132 34.5894 268.694 34.8663C269.783 35.4155 270.63 36.3489 271.073 37.4867C271.289 38.0347 271.4 38.6183 271.402 39.2073C271.405 40.0086 271.219 40.7992 270.859 41.5146C270.509 42.2291 269.982 42.8418 269.329 43.2945C268.652 43.7584 267.846 43.9992 267.026 43.9834H263.087V49.0628L260.768 49.0562ZM263.071 41.9398H266.861C267.267 41.9467 267.663 41.8206 267.99 41.5805C268.332 41.3242 268.602 40.9835 268.773 40.5917C268.969 40.1477 269.067 39.6664 269.059 39.181C269.07 38.6915 268.957 38.2072 268.73 37.7735C268.53 37.3913 268.237 37.0659 267.878 36.8275C267.546 36.6093 267.157 36.4946 266.759 36.4979H263.087L263.071 41.9398Z" fill="white"/>
<path d="M279.596 49.1586C278.624 49.1711 277.661 48.9602 276.783 48.5422C275.942 48.1377 275.192 47.5683 274.575 46.8678C273.332 45.4548 272.644 43.6384 272.637 41.7555C272.633 40.8013 272.814 39.8555 273.17 38.9703C273.518 38.0972 274.022 37.2952 274.657 36.6036C275.285 35.9177 276.037 35.3583 276.875 34.9555C277.745 34.5446 278.697 34.3372 279.659 34.3491C280.643 34.3347 281.617 34.5526 282.501 34.9852C283.335 35.4045 284.077 35.9848 284.686 36.6926C285.296 37.3976 285.777 38.2057 286.104 39.079C286.766 40.8475 286.758 42.7976 286.081 44.5605C285.753 45.4358 285.26 46.2402 284.63 46.9304C284.006 47.6205 283.253 48.1805 282.413 48.5785C281.529 48.9801 280.566 49.1784 279.596 49.1586ZM274.989 41.7555C274.989 42.4381 275.1 43.1162 275.318 43.7628C275.52 44.3827 275.834 44.9603 276.243 45.4669C276.638 45.9625 277.135 46.3663 277.701 46.6503C278.303 46.9472 278.968 47.0953 279.639 47.0821C280.324 47.0969 281.002 46.9418 281.613 46.6305C282.183 46.3354 282.681 45.9179 283.071 45.4076C283.468 44.8915 283.775 44.3105 283.976 43.6903C284.179 43.0656 284.282 42.4126 284.282 41.7555C284.284 41.077 284.173 40.4029 283.952 39.7613C283.739 39.1447 283.419 38.5702 283.008 38.0638C282.606 37.5709 282.105 37.1679 281.537 36.8805C280.93 36.5923 280.267 36.4447 279.595 36.4487C278.923 36.4526 278.261 36.6081 277.658 36.9036C277.095 37.2 276.601 37.6136 276.21 38.1165C275.812 38.628 275.506 39.2061 275.309 39.824C275.102 40.4469 274.996 41.099 274.996 41.7555H274.989Z" fill="white"/>
<path d="M289 49.0565V34.4546H291.32V47.0228H299.108V49.0565H289Z" fill="white"/>
<path d="M305.199 34.4546H307.374L313.04 49.0565H310.625L309.2 45.1011H303.363L301.931 49.0565H299.51L305.199 34.4546ZM308.581 43.3805L306.278 36.986L303.975 43.3805H308.581Z" fill="white"/>
<path d="M317.165 38.733V49.0565H314.861V34.4546H316.75L325.002 45.0023V34.4744H327.306V49.0565H325.331L317.165 38.733Z" fill="white"/>
<path d="M330.594 49.0562V34.4543H335.766C337.144 34.4066 338.507 34.7494 339.698 35.4432C340.726 36.0745 341.55 36.9903 342.071 38.0801C342.613 39.2269 342.887 40.4829 342.87 41.752C342.903 43.0931 342.603 44.4215 341.998 45.6184C341.439 46.6918 340.579 47.5784 339.524 48.1696C338.371 48.7931 337.076 49.1045 335.766 49.0727L330.594 49.0562ZM340.531 41.7355C340.549 40.799 340.356 39.8704 339.965 39.0195C339.609 38.262 339.047 37.6208 338.343 37.1704C337.568 36.6989 336.673 36.463 335.766 36.4913H332.913V47.0225H335.766C336.682 47.0524 337.586 46.8079 338.362 46.3204C339.069 45.8567 339.628 45.2002 339.975 44.4285C340.355 43.5826 340.545 42.6632 340.531 41.7355Z" fill="white"/>
<path d="M20.0827 38.405V64.3405L14.9004 60.5932V40.7447C14.9004 39.453 15.9439 38.405 17.2329 38.405H20.0827Z" fill="white"/>
<path d="M36.0267 16.1746L65.2443 30.9413C64.8492 31.6005 64.0027 32.8528 62.8928 33.5757C61.3478 34.5917 58.9846 34.8776 58.9846 34.8776C58.9846 34.8776 58.9046 36.2267 56.5789 36.6331C55.1035 36.8824 53.6051 36.9671 52.1111 36.8859C51.8181 33.2346 50.1655 29.8287 47.4833 27.3477C44.4203 24.4973 40.3919 22.9259 36.2171 22.9531C27.7987 22.9531 20.9041 29.0961 20.3209 36.893C18.8269 36.9744 17.3285 36.8896 15.853 36.6401C13.525 36.2338 13.4474 34.8847 13.4474 34.8847C13.4474 34.8847 11.411 34.5988 9.86838 33.5828C8.73965 32.8433 7.87899 31.5509 7.49805 30.9035L36.0267 16.1746Z" fill="white"/>
<path d="M65.8557 27.32C65.5898 28.2751 65.5506 29.2802 65.7413 30.2535L36.0062 15.123L7.00966 30.1884C7.18752 29.2353 7.1443 28.2534 6.8834 27.32C6.56653 26.3101 6.01514 25.3918 5.27539 24.6419L36.204 8.76416L67.4637 24.6419C66.7239 25.3918 66.1725 26.3101 65.8557 27.32Z" fill="white"/>
<path d="M49.697 38.2993V66.2872L36.3981 75.4555L23.0449 66.2471V38.2993C23.0449 31.3937 29.0116 25.8079 36.3722 25.8079C39.8622 25.7863 43.2296 27.0949 45.7907 29.4681C47.0138 30.5919 47.9921 31.9562 48.6643 33.4758C49.3364 34.9954 49.688 36.6375 49.697 38.2993Z" fill="white"/>
<path d="M51.918 38.405V64.3405L57.8407 60.5908V40.7447C57.8407 39.453 56.648 38.405 55.1749 38.405H51.918Z" fill="white"/>
</svg>
